<svg width="48" height="48" fill="none" xmlns="http://www.w3.org/2000/svg"><path d="M43.5 30.75H33A2.25 2.25 0 0030.75 33v10.5A2.25 2.25 0 0033 45.75h10.5a2.25 2.25 0 002.25-2.25V33a2.25 2.25 0 00-2.25-2.25zm-28.5 0H4.5A2.25 2.25 0 002.25 33v10.5a2.25 2.25 0 002.25 2.25H15a2.25 2.25 0 002.25-2.25V33A2.25 2.25 0 0015 30.75zm16.5-28.5h-15a2.25 2.25 0 00-2.25 2.25v15.75a2.25 2.25 0 002.25 2.25h15a2.25 2.25 0 002.25-2.25V4.5a2.25 2.25 0 00-2.25-2.25z" fill="#D4E2FC"/><path d="M24.675 34.165a.782.782 0 00-1.342 0l-3.75 7.5a.75.75 0 001.343.67L24 36.177 25.412 39H24a.75.75 0 100 1.5h2.162l.914 1.835a.75.75 0 101.342-.67l-3.742-7.5zM12.75 41.25H9a1.5 1.5 0 110-3h3a.75.75 0 100-1.5h-1.5a.75.75 0 11.675-1.084.75.75 0 101.34-.675 2.25 2.25 0 00-4.106 1.817A3 3 0 009 42.75h3.75a.75.75 0 100-1.5zm28.5-7.5a.75.75 0 00-.75.75v6.175l-2.25-1.35v-3.7a1.874 1.874 0 10-1.5 1.837v1.575a1.875 1.875 0 101.482 2.025l2.632 1.58A.75.75 0 0042 42v-7.5a.75.75 0 00-.75-.75zM36.375 36a.375.375 0 110-.75.375.375 0 010 .75zm0 5.25a.375.375 0 110-.75.375.375 0 010 .75z" fill="#2351C4"/><path d="M43.5 30.75H33c-.555.002-1.09.21-1.5.585a2.236 2.236 0 00-1.5-.585H18c-.555.002-1.09.21-1.5.585a2.236 2.236 0 00-1.5-.585H4.5A2.25 2.25 0 002.25 33v10.5a2.25 2.25 0 002.25 2.25H15a2.236 2.236 0 001.5-.585c.41.374.945.583 1.5.585h12a2.236 2.236 0 001.5-.585c.41.374.945.583 1.5.585h10.5a2.25 2.25 0 002.25-2.25V33a2.25 2.25 0 00-2.25-2.25zM15 44.25H4.5a.75.75 0 01-.75-.75V33a.75.75 0 01.75-.75H15a.75.75 0 01.75.75v10.5a.75.75 0 01-.75.75zm15 0H18a.75.75 0 01-.75-.75V33a.75.75 0 01.75-.75h12a.75.75 0 01.75.75v10.5a.75.75 0 01-.75.75zm14.25-.75a.75.75 0 01-.75.75H33a.75.75 0 01-.75-.75V33a.75.75 0 01.75-.75h10.5a.75.75 0 01.75.75v10.5zM9.04 28.702a.746.746 0 00.046.13c.021.04.047.079.075.114.03.042.065.08.103.116.014.011.02.027.035.038.032.02.065.038.1.052a.926.926 0 00.085.045.759.759 0 00.266.053.561.561 0 00.383-.12c.068-.04.13-.09.183-.15.01-.012.024-.017.034-.029l2.25-3a.75.75 0 00-1.2-.9l-.9 1.199v-12a.75.75 0 01.75-.75h3v6.75a2.25 2.25 0 002.25 2.25h6.75v3.75l-.9-1.2a.75.75 0 00-1.2.9l2.25 3c.01.012.025.017.035.029.05.059.108.11.174.15a.634.634 0 00.782 0 .725.725 0 00.175-.15c.01-.012.024-.017.034-.029l2.25-3a.75.75 0 00-1.2-.9l-.9 1.2V22.5h6.75a2.25 2.25 0 002.25-2.25V13.5h3a.75.75 0 01.75.75v12l-.9-1.2a.75.75 0 10-1.2.9l2.25 3c.01.012.025.017.035.029.078.074.163.141.254.199a.736.736 0 00.311.072c.09-.002.18-.02.264-.053a.92.92 0 00.085-.044.744.744 0 00.1-.053c.015-.01.021-.027.035-.038a.752.752 0 00.102-.116.712.712 0 00.075-.114.737.737 0 00.046-.13.68.68 0 00.03-.15c0-.018.01-.033.01-.051V14.25a2.25 2.25 0 00-2.25-2.25H33.75V4.5a2.25 2.25 0 00-2.25-2.25h-15a2.25 2.25 0 00-2.25 2.25V12h-3A2.25 2.25 0 009 14.25V28.5c0 .018.009.033.01.051a.689.689 0 00.03.15zM15.75 4.5a.75.75 0 01.75-.75h15a.75.75 0 01.75.75v15.75a.75.75 0 01-.75.75h-15a.75.75 0 01-.75-.75V4.5z" fill="#2351C4"/><path d="M18 9h9.6a11.955 11.955 0 01-3.587 5.91 12.406 12.406 0 01-2.913-3.976.75.75 0 10-1.363.626 13.878 13.878 0 003.095 4.303 15.873 15.873 0 01-4.316 2.175.75.75 0 00.474 1.425 17.22 17.22 0 005.025-2.593 17.07 17.07 0 005.005 2.593.748.748 0 00.95-.475.748.748 0 00-.476-.95 15.738 15.738 0 01-4.3-2.175A13.387 13.387 0 0029.133 9H30a.75.75 0 100-1.5h-5.25V6a.75.75 0 10-1.5 0v1.5H18A.75.75 0 1018 9z" fill="#2351C4"/></svg>