<svg width="48" height="48" fill="none" xmlns="http://www.w3.org/2000/svg"><path d="M23.203 32.946a.913.913 0 00-.046-.12l-1.315-2.72a8.04 8.04 0 00-2.38-5.66 7.134 7.134 0 00-5.297-1.938 7.82 7.82 0 00-7.409 7.459A7.4 7.4 0 009 35.711v4.32a1.22 1.22 0 001.218 1.219h6.563A1.22 1.22 0 0018 40.031V38.25h1.5a1.69 1.69 0 001.687-1.688V34.5h.844a1.22 1.22 0 001.172-1.554zM18 2.25H4.5A2.25 2.25 0 002.25 4.5V15a2.25 2.25 0 002.25 2.25h1.323l5.842 2.925a.75.75 0 001.085-.675v-2.25H18A2.25 2.25 0 0020.25 15V4.5A2.25 2.25 0 0018 2.25zm25.5 28.5H30A2.25 2.25 0 0027.75 33v2.25H25.5a.75.75 0 00-.65 1.125l2.9 5.075v2.05A2.25 2.25 0 0030 45.75h13.5a2.25 2.25 0 002.25-2.25V33a2.25 2.25 0 00-2.25-2.25z" fill="#D4E2FC"/><path d="M23.157 32.826l-1.315-2.72a8.04 8.04 0 00-2.38-5.66 7.134 7.134 0 00-5.297-1.938 7.82 7.82 0 00-7.409 7.459A7.4 7.4 0 009 35.711v4.32a1.22 1.22 0 001.218 1.219h6.563A1.22 1.22 0 0018 40.031V38.25h1.5a1.69 1.69 0 001.687-1.688V34.5h.844a1.22 1.22 0 001.172-1.554.913.913 0 00-.046-.12zm-2.25.174a1.22 1.22 0 00-1.22 1.219v2.343a.187.187 0 01-.187.188h-1.782a1.22 1.22 0 00-1.218 1.219v1.781h-6v-4.163a1.225 1.225 0 00-.382-.882 5.943 5.943 0 01-1.863-4.68 6.312 6.312 0 015.979-6.018 5.556 5.556 0 014.192 1.523 6.555 6.555 0 011.917 4.751.75.75 0 00.075.327L21.575 33h-.668zM14.25 14.25a.75.75 0 00.336-1.421 12.114 12.114 0 01-2.136-1.372 9.401 9.401 0 001.64-3.207H15a.75.75 0 100-1.5h-3V6a.75.75 0 10-1.5 0v.75h-3a.75.75 0 000 1.5h5.017a7.773 7.773 0 01-1.192 2.199 9.274 9.274 0 01-.954-1.116.75.75 0 00-1.247.833c.345.487.732.943 1.155 1.363a6.91 6.91 0 01-2.268 1.26.751.751 0 00.474 1.425 8.398 8.398 0 002.919-1.661c.775.63 1.617 1.174 2.51 1.622a.75.75 0 00.336.075z" fill="#2351C4"/><path d="M12 20.25a.75.75 0 00.75-.75v-2.25H18A2.25 2.25 0 0020.25 15V4.5A2.25 2.25 0 0018 2.25H4.5A2.25 2.25 0 002.25 4.5V15a2.25 2.25 0 002.25 2.25h1.323l5.842 2.925a.75.75 0 00.335.075zm-.75-3.75v1.787l-4.915-2.458A.751.751 0 006 15.75H4.5a.75.75 0 01-.75-.75V4.5a.75.75 0 01.75-.75H18a.75.75 0 01.75.75V15a.75.75 0 01-.75.75h-6a.75.75 0 00-.75.75zM43.5 5.25H30a2.25 2.25 0 00-2.25 2.25V18A2.25 2.25 0 0030 20.25h.392l-1.089 2.722a.75.75 0 001.032.953l7.342-3.675H43.5A2.25 2.25 0 0045.75 18V7.5a2.25 2.25 0 00-2.25-2.25zM44.25 18a.75.75 0 01-.75.75h-6a.75.75 0 00-.335.079l-5.736 2.869.768-1.92a.75.75 0 00-.697-1.028H30a.75.75 0 01-.75-.75V7.5a.75.75 0 01.75-.75h13.5a.75.75 0 01.75.75V18zm-.75 12.75H30A2.25 2.25 0 0027.75 33v2.25H25.5a.75.75 0 00-.65 1.125l2.9 5.075v2.05A2.25 2.25 0 0030 45.75h13.5a2.25 2.25 0 002.25-2.25V33a2.25 2.25 0 00-2.25-2.25zm.75 12.75a.75.75 0 01-.75.75H30a.75.75 0 01-.75-.75v-2.25a.75.75 0 00-.099-.375l-2.357-4.125H28.5a.75.75 0 00.75-.75v-3a.75.75 0 01.75-.75h13.5a.75.75 0 01.75.75v10.5z" fill="#2351C4"/><path d="M37.425 8.665a.781.781 0 00-1.342 0l-3.75 7.5a.748.748 0 00.618 1.083.749.749 0 00.724-.413l3.076-6.158 1.411 2.823h-1.411a.75.75 0 100 1.5h2.161l.917 1.835a.75.75 0 101.343-.67l-3.746-7.5zM39.75 41.25H36a1.5 1.5 0 110-3h3a.75.75 0 100-1.5h-1.5a.75.75 0 11.675-1.085.75.75 0 101.342-.672 2.25 2.25 0 00-4.106 1.817 3 3 0 00.59 5.94h3.75a.75.75 0 100-1.5z" fill="#2351C4"/></svg>