<svg width="16" height="16" fill="none" xmlns="http://www.w3.org/2000/svg"><path d="M16 0H0v16h16V0z" fill="#F0F0F0"/><path d="M11 6.268H9L8 4.536 7 6.268H5L6 8 5 9.732h2l1 1.732 1-1.732h2L10 8l1-1.732zM9.229 8l-.615 1.064H7.386L6.77 8l.615-1.064h1.228L9.23 8zM8 5.872l.229.396H7.77L8 5.872zM6.157 6.936h.457l-.228.396-.229-.396zm0 2.128l.229-.396.228.396h-.457zM8 10.128l-.229-.396h.458L8 10.128zm1.843-1.064h-.457l.228-.396.229.396zm-.457-2.128h.457l-.229.396-.228-.396zM16 1H0v2h16V1zm0 12H0v2h16v-2z" fill="#0052B4"/></svg>