<svg width="176" height="15" fill="none" xmlns="http://www.w3.org/2000/svg"><path d="M6.15 6.782h5.094v6.66c-.672.228-1.374.408-2.106.54-.72.132-1.542.198-2.466.198-1.92 0-3.396-.564-4.428-1.692C1.212 11.36.696 9.716.696 7.556c0-1.344.258-2.508.774-3.492a5.523 5.523 0 012.286-2.286c.996-.54 2.214-.81 3.654-.81a9.43 9.43 0 012.016.216c.66.144 1.26.336 1.8.576l-.9 2.178a6.586 6.586 0 00-1.35-.504 6.227 6.227 0 00-1.584-.198c-.792 0-1.482.18-2.07.54-.576.36-1.026.87-1.35 1.53-.312.648-.468 1.416-.468 2.304 0 .84.114 1.584.342 2.232.228.648.588 1.158 1.08 1.53.492.36 1.134.54 1.926.54.384 0 .708-.018.972-.054a9.91 9.91 0 00.756-.126V9.05H6.15V6.782zm13.422-2.79c.132 0 .288.006.468.018.18.012.324.03.432.054l-.198 2.52a1.998 1.998 0 00-.378-.054 2.76 2.76 0 00-.414-.036c-.456 0-.894.084-1.314.252-.42.156-.762.414-1.026.774-.252.36-.378.852-.378 1.476V14h-2.682V4.172h2.034l.396 1.656h.126a4.063 4.063 0 011.188-1.296c.504-.36 1.086-.54 1.746-.54zm11.702.18V14h-2.052l-.36-1.26h-.144c-.312.504-.744.87-1.296 1.098a4.396 4.396 0 01-1.728.342c-1.056 0-1.902-.282-2.538-.846-.636-.576-.954-1.494-.954-2.754V4.172h2.682v5.742c0 .696.126 1.224.378 1.584.252.36.654.54 1.206.54.816 0 1.374-.276 1.674-.828.3-.564.45-1.368.45-2.412V4.172h2.682zm9.67 6.912c0 .996-.354 1.764-1.062 2.304-.696.528-1.74.792-3.132.792-.684 0-1.272-.048-1.764-.144a6.865 6.865 0 01-1.476-.432V11.39c.528.24 1.098.438 1.71.594.612.156 1.152.234 1.62.234.528 0 .9-.078 1.116-.234.228-.156.342-.36.342-.612a.746.746 0 00-.144-.45c-.084-.132-.276-.282-.576-.45-.3-.168-.768-.384-1.404-.648a10.894 10.894 0 01-1.512-.774c-.396-.264-.69-.576-.882-.936-.192-.372-.288-.834-.288-1.386 0-.912.354-1.596 1.062-2.052.708-.456 1.65-.684 2.826-.684.612 0 1.194.06 1.746.18s1.122.318 1.71.594l-.81 1.926c-.48-.204-.936-.372-1.368-.504a4.13 4.13 0 00-1.314-.216c-.792 0-1.188.216-1.188.648 0 .156.048.3.144.432.108.12.306.252.594.396.3.144.738.336 1.314.576.564.228 1.05.468 1.458.72.408.24.72.546.936.918.228.36.342.834.342 1.422zM45.714.32v2.79c0 .48-.017.942-.053 1.386a13.87 13.87 0 01-.072.936h.144c.312-.504.714-.87 1.206-1.098a3.849 3.849 0 011.638-.342c1.068 0 1.92.288 2.556.864.648.564.972 1.476.972 2.736V14h-2.682V8.258c0-1.416-.528-2.124-1.584-2.124-.804 0-1.362.282-1.674.846-.3.552-.45 1.35-.45 2.394V14h-2.682V.32h2.682zm11.831 0v6.12c0 .372-.018.744-.054 1.116-.024.36-.054.726-.09 1.098h.036c.18-.252.366-.504.558-.756.192-.264.396-.51.612-.738l2.754-2.988h3.024l-3.906 4.266L64.619 14h-3.096l-2.826-3.978-1.152.918V14h-2.682V.32h2.682zm17.408 8.748c0 1.632-.432 2.892-1.296 3.78-.852.888-2.016 1.332-3.492 1.332-.912 0-1.728-.198-2.448-.594-.708-.396-1.266-.972-1.674-1.728-.408-.768-.612-1.698-.612-2.79 0-1.632.426-2.886 1.278-3.762.852-.876 2.022-1.314 3.51-1.314.924 0 1.74.198 2.448.594.708.396 1.266.972 1.674 1.728.408.744.612 1.662.612 2.754zm-6.786 0c0 .972.156 1.71.468 2.214.324.492.846.738 1.566.738.708 0 1.218-.246 1.53-.738.324-.504.486-1.242.486-2.214s-.162-1.698-.486-2.178c-.312-.492-.828-.738-1.548-.738-.708 0-1.224.246-1.548.738-.312.48-.468 1.206-.468 2.178zm17.854-8.1c.696 0 1.314.108 1.854.324.54.216.966.534 1.278.954.312.408.468.912.468 1.512 0 .828-.246 1.524-.738 2.088a7.087 7.087 0 01-1.836 1.476l2.502 2.43c.24-.408.45-.834.63-1.278.18-.456.33-.912.45-1.368h2.79a14.14 14.14 0 01-.792 2.16 10.08 10.08 0 01-1.332 2.16L93.941 14H90.63l-1.008-.99a6.851 6.851 0 01-1.728.864 6.743 6.743 0 01-2.07.306c-1.464 0-2.61-.336-3.438-1.008-.816-.672-1.224-1.554-1.224-2.646 0-.912.21-1.638.63-2.178.42-.552.996-1.038 1.728-1.458-.468-.54-.798-1.038-.99-1.494a3.935 3.935 0 01-.27-1.458c0-.612.156-1.14.468-1.584.324-.444.768-.786 1.332-1.026.576-.24 1.23-.36 1.962-.36zm-.018 2.07c-.3 0-.588.078-.864.234-.264.144-.396.426-.396.846 0 .3.072.588.216.864.156.276.36.558.612.846.504-.276.888-.552 1.152-.828.276-.276.414-.594.414-.954s-.12-.618-.36-.774a1.394 1.394 0 00-.774-.234zm-.918 5.454a3.697 3.697 0 00-.81.81 1.66 1.66 0 00-.288.972c0 .516.192.924.576 1.224.384.288.864.432 1.44.432.384 0 .744-.048 1.08-.144.336-.096.642-.228.918-.396l-2.916-2.898zm19.256-7.344c1.656 0 2.862.36 3.618 1.08.768.708 1.152 1.686 1.152 2.934 0 .744-.156 1.446-.468 2.106-.312.648-.834 1.17-1.566 1.566-.72.396-1.704.594-2.952.594h-1.17V14h-2.718V1.148h4.104zm-.144 2.232h-1.242v3.816h.9c.768 0 1.374-.15 1.818-.45.456-.312.684-.81.684-1.494 0-1.248-.72-1.872-2.16-1.872zm11.159.594c1.32 0 2.328.288 3.024.864.708.564 1.062 1.434 1.062 2.61V14h-1.872l-.522-1.332h-.072c-.42.528-.864.912-1.332 1.152-.468.24-1.11.36-1.926.36-.876 0-1.602-.252-2.178-.756-.576-.516-.864-1.302-.864-2.358 0-1.044.366-1.812 1.098-2.304.732-.504 1.83-.78 3.294-.828l1.71-.054v-.432c0-.516-.138-.894-.414-1.134-.264-.24-.636-.36-1.116-.36-.48 0-.948.072-1.404.216-.456.132-.912.3-1.368.504l-.882-1.818a7.727 7.727 0 011.746-.648 8.584 8.584 0 012.016-.234zm1.422 5.472l-1.044.036c-.864.024-1.464.18-1.8.468-.336.288-.504.666-.504 1.134 0 .408.12.702.36.882.24.168.552.252.936.252.576 0 1.062-.168 1.458-.504.396-.348.594-.834.594-1.458v-.81zm10.899-5.454c.132 0 .288.006.468.018.18.012.324.03.432.054l-.198 2.52a1.998 1.998 0 00-.378-.054 2.76 2.76 0 00-.414-.036c-.456 0-.894.084-1.314.252-.42.156-.762.414-1.026.774-.252.36-.378.852-.378 1.476V14h-2.682V4.172h2.034l.396 1.656h.126a4.063 4.063 0 011.188-1.296c.504-.36 1.086-.54 1.746-.54zm6.824 8.046c.3 0 .588-.03.864-.09s.552-.132.828-.216v1.998c-.288.12-.648.222-1.08.306-.42.096-.882.144-1.386.144a4.14 4.14 0 01-1.584-.288c-.456-.192-.822-.522-1.098-.99-.264-.48-.396-1.14-.396-1.98V6.188h-1.278V5.054l1.476-.9.774-2.07h1.71v2.088h2.754v2.016h-2.754v4.734c0 .372.108.654.324.846.216.18.498.27.846.27zm9.245-8.046c1.056 0 1.902.288 2.538.864.636.564.954 1.476.954 2.736V14h-2.682V8.258c0-.708-.126-1.236-.378-1.584-.252-.36-.654-.54-1.206-.54-.816 0-1.374.282-1.674.846-.3.552-.45 1.35-.45 2.394V14h-2.682V4.172h2.052l.36 1.26h.144A2.71 2.71 0 01142 4.334a4.529 4.529 0 011.746-.342zm10.3 0c1.356 0 2.43.39 3.222 1.17.792.768 1.188 1.866 1.188 3.294v1.296h-6.336c.024.756.246 1.35.666 1.782.432.432 1.026.648 1.782.648.636 0 1.212-.06 1.728-.18a8.757 8.757 0 001.602-.594v2.07c-.48.24-.99.414-1.53.522-.528.12-1.17.18-1.926.18-.984 0-1.854-.18-2.61-.54a4.134 4.134 0 01-1.782-1.674c-.432-.744-.648-1.68-.648-2.808 0-1.152.192-2.106.576-2.862.396-.768.942-1.344 1.638-1.728.696-.384 1.506-.576 2.43-.576zm.018 1.908c-.516 0-.948.168-1.296.504-.336.336-.534.858-.594 1.566h3.762c-.012-.6-.168-1.092-.468-1.476-.3-.396-.768-.594-1.404-.594zm12.057-1.908c.132 0 .288.006.468.018.18.012.324.03.432.054l-.198 2.52a1.998 1.998 0 00-.378-.054 2.76 2.76 0 00-.414-.036c-.456 0-.894.084-1.314.252-.42.156-.762.414-1.026.774-.252.36-.378.852-.378 1.476V14h-2.682V4.172h2.034l.396 1.656h.126a4.063 4.063 0 011.188-1.296c.504-.36 1.086-.54 1.746-.54zm9.541 7.092c0 .996-.354 1.764-1.062 2.304-.696.528-1.74.792-3.132.792-.684 0-1.272-.048-1.764-.144a6.865 6.865 0 01-1.476-.432V11.39c.528.24 1.098.438 1.71.594.612.156 1.152.234 1.62.234.528 0 .9-.078 1.116-.234.228-.156.342-.36.342-.612a.746.746 0 00-.144-.45c-.084-.132-.276-.282-.576-.45-.3-.168-.768-.384-1.404-.648a10.894 10.894 0 01-1.512-.774c-.396-.264-.69-.576-.882-.936-.192-.372-.288-.834-.288-1.386 0-.912.354-1.596 1.062-2.052.708-.456 1.65-.684 2.826-.684.612 0 1.194.06 1.746.18s1.122.318 1.71.594l-.81 1.926c-.48-.204-.936-.372-1.368-.504a4.13 4.13 0 00-1.314-.216c-.792 0-1.188.216-1.188.648 0 .156.048.3.144.432.108.12.306.252.594.396.3.144.738.336 1.314.576.564.228 1.05.468 1.458.72.408.24.72.546.936.918.228.36.342.834.342 1.422z" fill="#38455D"/></svg>