<svg width="195" height="17" fill="none" xmlns="http://www.w3.org/2000/svg"><path d="M6.22 7.98h5.66v7.4c-.747.253-1.527.453-2.34.6-.8.147-1.713.22-2.74.22-2.133 0-3.773-.627-4.92-1.88C.733 13.067.16 11.24.16 8.84c0-1.493.287-2.787.86-3.88a6.137 6.137 0 012.54-2.54c1.107-.6 2.46-.9 4.06-.9.76 0 1.507.08 2.24.24.733.16 1.4.373 2 .64l-1 2.42a7.32 7.32 0 00-1.5-.56 6.92 6.92 0 00-1.76-.22c-.88 0-1.647.2-2.3.6-.64.4-1.14.967-1.5 1.7-.347.72-.52 1.573-.52 2.56 0 .933.127 1.76.38 2.48s.653 1.287 1.2 1.7c.547.4 1.26.6 2.14.6.427 0 .787-.02 1.08-.06.307-.04.587-.087.84-.14V10.5h-2.7V7.98zm14.913-3.1c.146 0 .32.007.52.02.2.013.36.033.48.06l-.22 2.8a2.221 2.221 0 00-.42-.06 3.067 3.067 0 00-.46-.04c-.507 0-.994.093-1.46.28a2.43 2.43 0 00-1.14.86c-.28.4-.42.947-.42 1.64V16h-2.98V5.08h2.26l.44 1.84h.14c.32-.56.76-1.04 1.32-1.44.56-.4 1.206-.6 1.94-.6zm13.002.2V16h-2.28l-.4-1.4h-.16a3 3 0 01-1.44 1.22c-.6.253-1.24.38-1.92.38-1.174 0-2.114-.313-2.82-.94-.707-.64-1.06-1.66-1.06-3.06V5.08h2.98v6.38c0 .773.14 1.36.42 1.76.28.4.726.6 1.34.6.906 0 1.526-.307 1.86-.92.333-.627.5-1.52.5-2.68V5.08h2.98zm10.744 7.68c0 1.107-.393 1.96-1.18 2.56-.773.587-1.933.88-3.48.88-.76 0-1.413-.053-1.96-.16a7.626 7.626 0 01-1.64-.48V13.1c.587.267 1.22.487 1.9.66.68.173 1.28.26 1.8.26.587 0 1-.087 1.24-.26.254-.173.38-.4.38-.68a.828.828 0 00-.16-.5c-.093-.147-.306-.313-.64-.5-.333-.187-.853-.427-1.56-.72a12.1 12.1 0 01-1.68-.86c-.44-.293-.766-.64-.98-1.04-.213-.413-.32-.927-.32-1.54 0-1.013.394-1.773 1.18-2.28.787-.507 1.834-.76 3.14-.76.68 0 1.327.067 1.94.2a8.969 8.969 0 011.9.66l-.9 2.14a15.433 15.433 0 00-1.52-.56 4.59 4.59 0 00-1.46-.24c-.88 0-1.32.24-1.32.72a.8.8 0 00.16.48c.12.133.34.28.66.44.334.16.82.373 1.46.64.627.253 1.167.52 1.62.8.454.267.8.607 1.04 1.02.254.4.38.927.38 1.58zM50.181.8v3.1c0 .533-.02 1.047-.06 1.54-.027.493-.054.84-.08 1.04h.16c.346-.56.793-.967 1.34-1.22a4.277 4.277 0 011.82-.38c1.186 0 2.133.32 2.84.96.72.627 1.08 1.64 1.08 3.04V16H54.3V9.62c0-1.573-.587-2.36-1.76-2.36-.894 0-1.514.313-1.86.94-.334.613-.5 1.5-.5 2.66V16H47.2V.8h2.98zm13.144 0v6.8c0 .413-.02.827-.06 1.24-.026.4-.06.807-.1 1.22h.04c.2-.28.407-.56.62-.84.213-.293.44-.567.68-.82l3.06-3.32h3.36l-4.34 4.74 4.6 6.18h-3.44l-3.14-4.42-1.28 1.02V16h-2.98V.8h2.98zm19.343 9.72c0 1.813-.48 3.213-1.44 4.2-.947.987-2.24 1.48-3.88 1.48-1.014 0-1.92-.22-2.72-.66-.787-.44-1.407-1.08-1.86-1.92-.454-.853-.68-1.887-.68-3.1 0-1.813.473-3.207 1.42-4.18.946-.973 2.246-1.46 3.9-1.46 1.026 0 1.933.22 2.72.66.786.44 1.406 1.08 1.86 1.92.453.827.68 1.847.68 3.06zm-7.54 0c0 1.08.173 1.9.52 2.46.36.547.94.82 1.74.82.786 0 1.353-.273 1.7-.82.36-.56.54-1.38.54-2.46s-.18-1.887-.54-2.42c-.347-.547-.92-.82-1.72-.82-.787 0-1.36.273-1.72.82-.347.533-.52 1.34-.52 2.42zm19.838-9c.773 0 1.46.12 2.06.36.6.24 1.073.593 1.42 1.06.346.453.52 1.013.52 1.68 0 .92-.274 1.693-.82 2.32-.547.627-1.227 1.173-2.04 1.64l2.78 2.7c.266-.453.5-.927.7-1.42.2-.507.366-1.013.5-1.52h3.1c-.2.747-.494 1.547-.88 2.4-.387.853-.88 1.653-1.48 2.4l2.94 2.86h-3.68l-1.12-1.1c-.574.4-1.214.72-1.92.96a7.49 7.49 0 01-2.3.34c-1.627 0-2.9-.373-3.82-1.12-.907-.747-1.36-1.727-1.36-2.94 0-1.013.233-1.82.7-2.42.466-.613 1.106-1.153 1.92-1.62-.52-.6-.887-1.153-1.1-1.66-.2-.507-.3-1.047-.3-1.62 0-.68.173-1.267.52-1.76.36-.493.853-.873 1.48-1.14.64-.267 1.366-.4 2.18-.4zm-.02 2.3c-.334 0-.654.087-.96.26-.294.16-.44.473-.44.94 0 .333.08.653.24.96.173.307.4.62.68.94.56-.307.986-.613 1.28-.92.306-.307.46-.66.46-1.06s-.134-.687-.4-.86a1.549 1.549 0 00-.86-.26zm-1.02 6.06a4.11 4.11 0 00-.9.9 1.84 1.84 0 00-.32 1.08c0 .573.213 1.027.64 1.36.426.32.96.48 1.6.48.426 0 .826-.053 1.2-.16a4.134 4.134 0 001.02-.44l-3.24-3.22zm21.395-8.16c1.84 0 3.18.4 4.02 1.2.853.787 1.28 1.873 1.28 3.26a5.4 5.4 0 01-.52 2.34c-.347.72-.927 1.3-1.74 1.74-.8.44-1.893.66-3.28.66h-1.3V16h-3.02V1.72h4.56zm-.16 2.48h-1.38v4.24h1c.853 0 1.527-.167 2.02-.5.507-.347.76-.9.76-1.66 0-1.387-.8-2.08-2.4-2.08zm12.399.66c1.466 0 2.586.32 3.36.96.786.627 1.18 1.593 1.18 2.9V16h-2.08l-.58-1.48h-.08c-.467.587-.96 1.013-1.48 1.28-.52.267-1.234.4-2.14.4-.974 0-1.78-.28-2.42-.84-.64-.573-.96-1.447-.96-2.62 0-1.16.406-2.013 1.22-2.56.813-.56 2.033-.867 3.66-.92l1.9-.06v-.48c0-.573-.154-.993-.46-1.26-.294-.267-.707-.4-1.24-.4-.534 0-1.054.08-1.56.24a11.61 11.61 0 00-1.52.56l-.98-2.02a8.568 8.568 0 011.94-.72 9.534 9.534 0 012.24-.26zm1.58 6.08l-1.16.04c-.96.027-1.627.2-2 .52-.374.32-.56.74-.56 1.26 0 .453.133.78.4.98.266.187.613.28 1.04.28.64 0 1.18-.187 1.62-.56.44-.387.66-.927.66-1.62v-.9zm12.11-6.06c.147 0 .32.007.52.02.2.013.36.033.48.06l-.22 2.8a2.21 2.21 0 00-.42-.06 3.066 3.066 0 00-.46-.04c-.507 0-.993.093-1.46.28a2.43 2.43 0 00-1.14.86c-.28.4-.42.947-.42 1.64V16h-2.98V5.08h2.26l.44 1.84h.14c.32-.56.76-1.04 1.32-1.44.56-.4 1.207-.6 1.94-.6zm7.582 8.94c.333 0 .653-.033.96-.1.307-.067.613-.147.92-.24v2.22c-.32.133-.72.247-1.2.34-.467.107-.98.16-1.54.16-.653 0-1.24-.107-1.76-.32-.507-.213-.913-.58-1.22-1.1-.293-.533-.44-1.267-.44-2.2V7.32h-1.42V6.06l1.64-1 .86-2.3h1.9v2.32h3.06v2.24h-3.06v5.26c0 .413.12.727.36.94.24.2.553.3.94.3zm10.272-8.94c1.173 0 2.113.32 2.82.96.706.627 1.06 1.64 1.06 3.04V16h-2.98V9.62c0-.787-.14-1.373-.42-1.76-.28-.4-.727-.6-1.34-.6-.907 0-1.527.313-1.86.94-.334.613-.5 1.5-.5 2.66V16h-2.98V5.08h2.28l.4 1.4h.16c.346-.56.82-.967 1.42-1.22a5.03 5.03 0 011.94-.38zm11.444 0c1.507 0 2.7.433 3.58 1.3.88.853 1.32 2.073 1.32 3.66v1.44h-7.04c.027.84.274 1.5.74 1.98.48.48 1.14.72 1.98.72a8.49 8.49 0 001.92-.2 9.708 9.708 0 001.78-.66v2.3a6.72 6.72 0 01-1.7.58c-.586.133-1.3.2-2.14.2-1.093 0-2.06-.2-2.9-.6a4.593 4.593 0 01-1.98-1.86c-.48-.827-.72-1.867-.72-3.12 0-1.28.214-2.34.64-3.18.44-.853 1.047-1.493 1.82-1.92.774-.427 1.674-.64 2.7-.64zm.02 2.12c-.573 0-1.053.187-1.44.56-.373.373-.593.953-.66 1.74h4.18c-.013-.667-.186-1.213-.52-1.64-.333-.44-.853-.66-1.56-.66zm13.397-2.12c.146 0 .32.007.52.02.2.013.36.033.48.06l-.22 2.8a2.237 2.237 0 00-.42-.06 3.077 3.077 0 00-.46-.04c-.507 0-.994.093-1.46.28a2.43 2.43 0 00-1.14.86c-.28.4-.42.947-.42 1.64V16h-2.98V5.08h2.26l.44 1.84h.14c.32-.56.76-1.04 1.32-1.44.56-.4 1.206-.6 1.94-.6zm10.602 7.88c0 1.107-.394 1.96-1.18 2.56-.774.587-1.934.88-3.48.88-.76 0-1.414-.053-1.96-.16a7.608 7.608 0 01-1.64-.48V13.1c.586.267 1.22.487 1.9.66.68.173 1.28.26 1.8.26.586 0 1-.087 1.24-.26.253-.173.38-.4.38-.68a.833.833 0 00-.16-.5c-.094-.147-.307-.313-.64-.5-.334-.187-.854-.427-1.56-.72a12.1 12.1 0 01-1.68-.86c-.44-.293-.767-.64-.98-1.04-.214-.413-.32-.927-.32-1.54 0-1.013.393-1.773 1.18-2.28.786-.507 1.833-.76 3.14-.76.68 0 1.326.067 1.94.2a8.99 8.99 0 011.9.66l-.9 2.14a15.499 15.499 0 00-1.52-.56 4.59 4.59 0 00-1.46-.24c-.88 0-1.32.24-1.32.72 0 .173.053.333.16.48.12.133.34.28.66.44.333.16.82.373 1.46.64.626.253 1.166.52 1.62.8.453.267.8.607 1.04 1.02.253.4.38.927.38 1.58z" fill="#38455D"/></svg>