<svg width="48" height="48" fill="none" xmlns="http://www.w3.org/2000/svg"><path d="M42 34.125h-4.5a.75.75 0 00-.75.75v3c0 .136.037.27.107.386l2.25 3.75a.75.75 0 001.286 0l2.25-3.75a.75.75 0 00.107-.386v-3a.75.75 0 00-.75-.75zm-.13-27.62a3 3 0 00-5.12 2.12v2.25a.75.75 0 00.75.75H42a.75.75 0 00.75-.75v-2.25a2.982 2.982 0 00-.88-2.12zM32.25 5.25H3.75a1.5 1.5 0 00-1.5 1.5v6.75a.75.75 0 00.75.75h30a.75.75 0 00.75-.75V6.75a1.5 1.5 0 00-1.5-1.5z" fill="#D4E2FC"/><path d="M32.25 5.25h-4.5V3.719a1.47 1.47 0 00-1.468-1.469h-1.564a1.47 1.47 0 00-1.468 1.469V5.25h-3V3.719a1.47 1.47 0 00-1.468-1.469h-1.564a1.47 1.47 0 00-1.468 1.469V5.25h-3V3.719a1.47 1.47 0 00-1.469-1.469H9.718A1.47 1.47 0 008.25 3.719V5.25h-4.5a1.5 1.5 0 00-1.5 1.5v37.5a1.5 1.5 0 001.5 1.5h28.5a1.5 1.5 0 001.5-1.5V6.75a1.5 1.5 0 00-1.5-1.5zm-7.532-1.5l1.532-.031V5.25h-1.52l-.012-1.5zm-7.5 0l1.532-.031V5.25h-1.52l-.012-1.5zm-7.5 0l1.532-.031V5.25H9.73l-.011-1.5zm-5.968 3h4.5v1.19c.001.397.159.778.44 1.06l1.28 1.28a.75.75 0 001.06-1.06L9.75 7.94l-.009-1.19h6.009v1.189c0 .398.159.78.44 1.061l1.28 1.28a.75.75 0 001.06-1.06l-1.28-1.28-.009-1.19h6.009v1.188c0 .398.159.78.44 1.062l1.28 1.28a.75.75 0 001.06-1.06l-1.28-1.28-.009-1.19h7.509v6H3.75v-6zm28.5 37.5H3.75v-30h28.5v30zm13.2-31.725l-2.7-2.025V8.625a3 3 0 00-6 0v29.25c0 .136.037.27.107.386l2.25 3.75a.75.75 0 001.286 0l2.25-3.75a.749.749 0 00.107-.386v-25.5l1.5 1.125v7.875a.75.75 0 101.5 0v-8.25a.75.75 0 00-.3-.6zm-4.2 21.6h-3v-22.5h3v22.5zm-3-25.5a1.5 1.5 0 113 0v1.5h-3v-1.5zm3 29.042l-1.5 2.5-1.5-2.5v-2.042h3v2.042z" fill="#2351C4"/><path d="M12 20.25h9.6a11.957 11.957 0 01-3.587 5.91 12.406 12.406 0 01-2.913-3.976.75.75 0 00-1.363.626 13.878 13.878 0 003.095 4.303 15.873 15.873 0 01-4.316 2.175.751.751 0 00.474 1.425 17.22 17.22 0 005.025-2.593 17.07 17.07 0 005.005 2.593.75.75 0 10.474-1.425 15.738 15.738 0 01-4.3-2.175 13.386 13.386 0 003.94-6.863H24a.75.75 0 100-1.5h-5.25v-1.5a.75.75 0 10-1.5 0v1.5H12a.75.75 0 100 1.5zM9 36h18a.75.75 0 100-1.5H9A.75.75 0 109 36zm0 6h18a.75.75 0 100-1.5H9A.75.75 0 109 42zm3.75-4.5a.75.75 0 100 1.5h10.5a.75.75 0 100-1.5h-10.5z" fill="#2351C4"/></svg>