<svg width="48" height="48" fill="none" xmlns="http://www.w3.org/2000/svg"><path d="M45 13.5H31.5a.75.75 0 00-.75.75v19.5a.75.75 0 00.75.75h9.75a.75.75 0 00.53-.22l3.75-3.75a.75.75 0 00.22-.53V14.25a.75.75 0 00-.75-.75zm-28.5 0H3a.75.75 0 00-.75.75v19.5a.75.75 0 00.75.75h9.75a.75.75 0 00.53-.22l3.75-3.75a.75.75 0 00.22-.53V14.25a.75.75 0 00-.75-.75zm24.638-7.144A.75.75 0 0040.5 6H36a.75.75 0 00-.675 1.085l2.25 4.5a.749.749 0 001.342 0l2.25-4.5a.75.75 0 00-.029-.73zM10.425 36.415a.783.783 0 00-1.342 0l-2.25 4.5A.75.75 0 007.5 42H12a.75.75 0 00.671-1.085l-2.246-4.5zM9.75 12a3 3 0 100-6 3 3 0 000 6zm28.5 30a3 3 0 100-6 3 3 0 000 6z" fill="#D4E2FC"/><path d="M9.906 25.3a13.73 13.73 0 002.509 1.625.75.75 0 00.67-1.343 12.117 12.117 0 01-2.135-1.375A9.4 9.4 0 0012.59 21h.91a.75.75 0 100-1.5h-3v-.75a.75.75 0 10-1.5 0v.75H6A.75.75 0 106 21h5.018a7.8 7.8 0 01-1.193 2.199 9.352 9.352 0 01-.954-1.116.75.75 0 00-1.247.833c.345.487.732.943 1.156 1.363a6.94 6.94 0 01-2.27 1.26.75.75 0 10.475 1.424A8.412 8.412 0 009.906 25.3z" fill="#2351C4"/><path d="M13.036 34.443a.75.75 0 00.244-.163l3.75-3.75a.755.755 0 00.15-.22c.01-.023.017-.046.025-.07a.709.709 0 00.038-.193c0-.016.01-.03.01-.047V14.25a.75.75 0 00-.75-.75H3a.75.75 0 00-.75.75v19.5a.75.75 0 00.75.75h9.75a.75.75 0 00.286-.057zm.464-2.503v-1.19h1.19l-1.19 1.19zM3.75 15h12v14.25h-3A.75.75 0 0012 30v3H3.75V15zm36.662 9.75l.917 1.835a.75.75 0 101.342-.67l-3.75-7.5a.783.783 0 00-1.342 0l-3.75 7.5a.75.75 0 001.342.67l3.08-6.158 1.41 2.823h-1.41a.75.75 0 100 1.5h2.16z" fill="#2351C4"/><path d="M45.74 30.047c0-.016.01-.03.01-.047V14.25a.75.75 0 00-.75-.75H31.5a.75.75 0 00-.75.75v19.5a.75.75 0 00.75.75h9.75c.199 0 .39-.08.53-.22l3.75-3.75a.755.755 0 00.15-.22c.01-.023.017-.046.025-.07a.707.707 0 00.035-.193zM32.25 15h12v14.25h-3a.75.75 0 00-.75.75v3h-8.25V15zM42 31.94v-1.19h1.19L42 31.94zM9.75 12a2.994 2.994 0 00.75-5.894V4.5a.75.75 0 01.75-.75h25.5a.75.75 0 01.75.75V6H36a.75.75 0 00-.675 1.085l2.25 4.5a.75.75 0 001.342 0l2.25-4.5A.75.75 0 0040.5 6H39V4.5a2.25 2.25 0 00-2.25-2.25h-25.5A2.25 2.25 0 009 4.5v1.606A2.994 2.994 0 009.75 12zm28.5-2.427L37.213 7.5h2.073L38.25 9.573zM9.75 7.5a1.5 1.5 0 110 3 1.5 1.5 0 010-3zM38.25 36a2.995 2.995 0 00-.75 5.894V43.5a.75.75 0 01-.75.75h-25.5a.75.75 0 01-.75-.75V42H12a.75.75 0 00.671-1.085l-2.25-4.5a.782.782 0 00-1.342 0l-2.25 4.5A.75.75 0 007.5 42H9v1.5a2.25 2.25 0 002.25 2.25h25.5A2.25 2.25 0 0039 43.5v-1.606A2.994 2.994 0 0038.25 36zm-28.5 2.427l1.037 2.073H8.714l1.036-2.073zm28.5 2.073a1.5 1.5 0 110-3 1.5 1.5 0 010 3z" fill="#2351C4"/></svg>