<svg width="48" height="48" fill="none" xmlns="http://www.w3.org/2000/svg"><path d="M32.25 10.5c0-.136 0-.27-.008-.395a8.25 8.25 0 00-16.483-.01c-.009.134-.009.27-.009.405a8.25 8.25 0 1016.5 0zM9.363 29.325a8.082 8.082 0 00-2.988 1.03 8.25 8.25 0 1011.946 4.522 8.25 8.25 0 00-8.958-5.552zm32.262 1.032a8.071 8.071 0 00-2.987-1.032 8.259 8.259 0 102.987 1.032z" fill="#D4E2FC"/><path d="M5.25 8.25a3 3 0 100-6 3 3 0 000 6zm0-4.5a1.5 1.5 0 110 3 1.5 1.5 0 010-3zm37.5 4.5a3 3 0 100-6 3 3 0 000 6zm0-4.5a1.5 1.5 0 110 3 1.5 1.5 0 010-3zM20.25 9h5.017a7.774 7.774 0 01-1.192 2.199 9.274 9.274 0 01-.954-1.116.75.75 0 00-1.247.833c.345.487.732.943 1.155 1.363a6.91 6.91 0 01-2.268 1.26.753.753 0 00-.33 1.204.75.75 0 00.804.221 8.399 8.399 0 002.919-1.661 13.72 13.72 0 002.51 1.622.75.75 0 10.671-1.343 12.12 12.12 0 01-2.135-1.375A9.401 9.401 0 0026.84 9h.91a.75.75 0 100-1.5h-3v-.75a.75.75 0 10-1.5 0v.75h-3a.75.75 0 100 1.5zm-9.075 23.665a.782.782 0 00-1.343 0l-3.75 7.5a.75.75 0 001.343.67l3.075-6.158 1.412 2.823H10.5a.75.75 0 100 1.5h2.162l.917 1.835a.75.75 0 101.342-.67l-3.746-7.5z" fill="#2351C4"/><path d="M41.625 30.357a8.14 8.14 0 00-1.282-.6l2.072-1.385a.75.75 0 00-.834-1.247l-1.626 1.087A16.52 16.52 0 0032.2 9.687a8.25 8.25 0 00-16.368-.375l-3.007-.308a.752.752 0 10-.15 1.496l1.608.167A16.5 16.5 0 007.5 24c.002 1.877.328 3.74.963 5.505a8.07 8.07 0 00-2.088.85 8.25 8.25 0 008.25 14.29 8.158 8.158 0 003.613-4.295l1.39 2.072a.75.75 0 001.244-.836l-1.091-1.629c3.211.838 6.6.694 9.73-.412a8.24 8.24 0 007.975 6.205 8.25 8.25 0 004.139-15.393zM24 3.75a6.741 6.741 0 016.744 6.435c.007.106.006.21.006.315a6.75 6.75 0 01-13.5 0c0-.105 0-.21.007-.325A6.738 6.738 0 0124 3.75zM13.875 43.346a6.751 6.751 0 01-6.75-11.693 6.615 6.615 0 012.44-.843 6.75 6.75 0 017.616 7.62 6.696 6.696 0 01-3.306 4.916zm4.854-5.32a8.248 8.248 0 00-8.76-8.762A14.797 14.797 0 019 24a15.005 15.005 0 016.807-12.563 8.246 8.246 0 0016.386 0A15.005 15.005 0 0139 24c0 1.799-.33 3.583-.97 5.264a8.25 8.25 0 00-8.759 8.761 15.097 15.097 0 01-10.542 0zm24.617 2.85a6.75 6.75 0 11-4.91-10.065c.861.118 1.69.405 2.439.844a6.757 6.757 0 012.47 9.22z" fill="#2351C4"/><path d="M24 22.5a3.75 3.75 0 100 7.5 3.75 3.75 0 000-7.5zm0 6a2.25 2.25 0 110-4.5 2.25 2.25 0 010 4.5zm16.5 12h-3.75a1.5 1.5 0 110-3h3a.75.75 0 100-1.5h-1.5a.748.748 0 01-.633-1.146.75.75 0 011.308.06.753.753 0 001.24.154.75.75 0 00.102-.828 2.25 2.25 0 00-4.107 1.816A3 3 0 0036.75 42h3.75a.75.75 0 100-1.5z" fill="#2351C4"/></svg>