<svg width="48" height="48" fill="none" xmlns="http://www.w3.org/2000/svg"><path d="M36 21.75h-3a.75.75 0 00-.75.75V42a.75.75 0 00.75.75h2.25a1.5 1.5 0 001.5-1.5V22.5a.75.75 0 00-.75-.75zm-.75-19.5H6.75a1.5 1.5 0 00-1.5 1.5V6a.75.75 0 00.75.75h26.25v9.75a.75.75 0 00.75.75h3a.75.75 0 00.75-.75V3.75a1.5 1.5 0 00-1.5-1.5zm-5.25 15h-3.127a.75.75 0 00-.74.875c.156.91.156 1.84 0 2.75a.75.75 0 00.74.875H30a.75.75 0 00.75-.75v-3a.75.75 0 00-.75-.75z" fill="#D4E2FC"/><path d="M42 15.75H30.75a1.5 1.5 0 00-1.5 1.5v4.5a1.5 1.5 0 001.5 1.5H42a3.75 3.75 0 000-7.5z" fill="#D4E2FC"/><path d="M21.75 16.5h-3v-.75a.75.75 0 10-1.5 0v.75h-3a.75.75 0 100 1.5h5.017a7.793 7.793 0 01-1.192 2.199 9.351 9.351 0 01-.954-1.116.75.75 0 00-1.247.833c.345.487.732.943 1.155 1.363-.67.559-1.44.986-2.268 1.26a.75.75 0 10.474 1.424 8.41 8.41 0 002.919-1.662 13.733 13.733 0 002.51 1.624.75.75 0 00.671-1.343 12.117 12.117 0 01-2.135-1.375A9.4 9.4 0 0020.84 18h.91a.75.75 0 100-1.5zm-7.575 17.665a.782.782 0 00-1.343 0l-3 6a.75.75 0 001.343.67l2.325-4.658 1.037 2.073H13.5a.75.75 0 100 1.5h1.787l.542 1.085a.75.75 0 101.342-.67l-2.996-6zM24 33.75h-3a.75.75 0 00-.75.75v6a.75.75 0 00.75.75h3a2.24 2.24 0 001.665-3.75A2.24 2.24 0 0024 33.75zm0 6h-2.25v-4.5H24a.75.75 0 110 1.5h-.75a.75.75 0 100 1.5H24a.75.75 0 110 1.5z" fill="#2351C4"/><path d="M42 15.75h-5.25v-12a1.5 1.5 0 00-1.5-1.5H6.75a1.5 1.5 0 00-1.5 1.5v1.5h-1.5a1.5 1.5 0 00-1.5 1.5v37.5a1.5 1.5 0 001.5 1.5h28.5a1.5 1.5 0 001.5-1.5v-1.5h1.5a1.5 1.5 0 001.5-1.5v-18H42a3.75 3.75 0 100-7.5zm-35.25-12h28.5v12h-1.5v-9a1.5 1.5 0 00-1.5-1.5H6.75v-1.5zm25.5 40.5H3.75V6.75h28.5v9h-1.5a1.5 1.5 0 00-1.5 1.5h-1.771a8.569 8.569 0 00-.225-.803c-.071-.216-.15-.427-.234-.636-.022-.054-.043-.109-.067-.164a9.685 9.685 0 00-5.142-5.12l-.043-.018a9.243 9.243 0 00-.785-.288l-.15-.048a8 8 0 00-.718-.185c-.075-.016-.145-.035-.219-.05-.233-.045-.468-.075-.705-.108-.08-.01-.159-.024-.24-.032a9.75 9.75 0 100 19.404c.082-.008.16-.022.24-.032.238-.03.473-.063.706-.108.075-.015.145-.033.218-.05.243-.053.483-.114.72-.185.049-.015.098-.032.15-.047.267-.086.529-.182.786-.289l.043-.018a9.683 9.683 0 005.668-6.725h1.768a1.5 1.5 0 001.5 1.5h1.5V44.25zM21.189 27.108c-.217.09-.44.171-.666.244l-.125.04a7.71 7.71 0 01-.607.156c-.062.015-.124.03-.187.043a8.174 8.174 0 01-.596.09c-.067.009-.134.022-.203.028a8.25 8.25 0 110-16.419c.069.007.136.02.203.028.201.024.4.053.596.091.063.013.125.028.187.043.205.045.408.095.607.156.043.012.084.027.126.04.225.075.45.15.663.244l.04.016a8.298 8.298 0 014.348 4.324c.023.053.044.107.065.16a8.203 8.203 0 01.53 2.002c.016.115.033.232.045.348.022.249.038.5.038.755s-.016.506-.038.755c-.012.117-.029.233-.044.348a9.995 9.995 0 01-.06.392 9.725 9.725 0 01-.19.805 8.009 8.009 0 01-.284.82l-.059.141a8.295 8.295 0 01-4.35 4.331l-.039.019zM27.75 19.5c0-.249-.01-.5-.03-.75h1.53v1.5h-1.53c.02-.25.03-.501.03-.75zm7.5 21.75h-1.5v-18h1.5v18zm8.346-20.162A2.264 2.264 0 0142 21.75H30.75v-4.5H42a2.25 2.25 0 011.596 3.838z" fill="#2351C4"/></svg>