<svg width="48" height="48" fill="none" xmlns="http://www.w3.org/2000/svg"><path d="M18.658 37.326l-1.316-2.72a8.035 8.035 0 00-2.38-5.66 7.092 7.092 0 00-5.297-1.938 7.822 7.822 0 00-7.408 7.459A7.402 7.402 0 004.5 40.211v4.32a1.22 1.22 0 001.22 1.219h6.562a1.22 1.22 0 001.218-1.219V42.75H15a1.69 1.69 0 001.688-1.688V39h.843a1.22 1.22 0 001.172-1.554.83.83 0 00-.045-.12zm19.677-10.318a7.08 7.08 0 00-5.297 1.938 8.035 8.035 0 00-2.38 5.66l-1.316 2.72a.821.821 0 00-.045.12A1.22 1.22 0 0030.469 39h.843v2.063A1.69 1.69 0 0033 42.75h1.5v1.781a1.22 1.22 0 001.218 1.219h6.563a1.22 1.22 0 001.219-1.219v-4.32a7.402 7.402 0 002.244-5.744 7.822 7.822 0 00-7.41-7.459z" fill="#D4E2FC"/><path d="M18.658 37.326l-1.316-2.72a8.035 8.035 0 00-2.38-5.66 7.092 7.092 0 00-5.297-1.938 7.822 7.822 0 00-7.408 7.459A7.402 7.402 0 004.5 40.211v4.32a1.22 1.22 0 001.22 1.219h6.562a1.22 1.22 0 001.218-1.219V42.75H15a1.69 1.69 0 001.688-1.688V39h.843a1.22 1.22 0 001.172-1.554.83.83 0 00-.045-.12zm-2.25.174a1.22 1.22 0 00-1.219 1.219v2.343a.186.186 0 01-.117.174.187.187 0 01-.072.014h-1.78A1.22 1.22 0 0012 42.469v1.781H6v-4.163a1.225 1.225 0 00-.382-.882 5.944 5.944 0 01-1.863-4.679 6.313 6.313 0 015.979-6.02 5.538 5.538 0 014.192 1.524 6.557 6.557 0 011.917 4.751c0 .114.026.225.075.327l1.158 2.392h-.668zm21.927-10.492a7.08 7.08 0 00-5.297 1.938 8.035 8.035 0 00-2.38 5.66l-1.316 2.72a.821.821 0 00-.045.12A1.22 1.22 0 0030.469 39h.843v2.063A1.69 1.69 0 0033 42.75h1.5v1.781a1.22 1.22 0 001.218 1.219h6.563a1.22 1.22 0 001.219-1.219v-4.32a7.402 7.402 0 002.244-5.744 7.822 7.822 0 00-7.41-7.459zm4.05 12.198a1.226 1.226 0 00-.385.88v4.164h-6v-1.781a1.22 1.22 0 00-1.22-1.219H33a.187.187 0 01-.188-.188V38.72a1.22 1.22 0 00-1.219-1.219h-.669l1.157-2.392a.75.75 0 00.075-.327 6.555 6.555 0 011.917-4.751 5.539 5.539 0 014.193-1.523 6.313 6.313 0 015.979 6.02 5.945 5.945 0 01-1.864 4.678h.004zM22.5 14.25a.75.75 0 00.336-1.421 12.114 12.114 0 01-2.136-1.372 9.401 9.401 0 001.64-3.207h.91a.75.75 0 100-1.5h-3V6a.75.75 0 10-1.5 0v.75h-3a.75.75 0 100 1.5h5.017a7.793 7.793 0 01-1.192 2.199 9.35 9.35 0 01-.954-1.116.75.75 0 00-1.247.833c.345.487.732.943 1.155 1.363-.67.559-1.44.986-2.268 1.26a.75.75 0 10.474 1.424 8.41 8.41 0 002.919-1.662 13.733 13.733 0 002.51 1.624.75.75 0 00.336.075zm6.675-1.085a.782.782 0 00-1.343 0l-3.75 7.5a.75.75 0 101.343.67l3.075-6.158L29.912 18H28.5a.75.75 0 100 1.5h2.162l.917 1.835a.751.751 0 001.342-.67l-3.746-7.5zm.41-7.836a.75.75 0 00-1.006.336l-7.5 15a.75.75 0 001.342.67l7.5-15a.748.748 0 00-.336-1.006z" fill="#2351C4"/><path d="M39.75 21.094V5.906a3.66 3.66 0 00-3.656-3.656H11.906A3.66 3.66 0 008.25 5.906v15.188a3.66 3.66 0 003.656 3.656h7.992l3.525 4.23a.75.75 0 001.154 0l3.525-4.23h7.992a3.66 3.66 0 003.656-3.656zm-12 2.156a.75.75 0 00-.577.27L24 27.328l-3.173-3.808a.751.751 0 00-.577-.27h-8.344a2.16 2.16 0 01-2.156-2.156V5.906a2.16 2.16 0 012.156-2.156h24.188a2.16 2.16 0 012.156 2.156v15.188a2.16 2.16 0 01-2.156 2.156H27.75z" fill="#2351C4"/></svg>