<svg width="16" height="16" fill="none" xmlns="http://www.w3.org/2000/svg"><g clip-path="url(#clip0)"><path d="M16 0H0v16h16V0z" fill="#F0F0F0"/><path d="M0 9.5h6.5V16h3V9.5H16v-3H9.5V0h-3v6.5H0v3z" fill="#D80027"/><path d="M12.716 10.435L16 13.719v-3.284h-3.284zm-2.281 0L16 16v-1.574l-3.991-3.991h-1.574zM14.518 16l-4.083-4.083V16h4.083z" fill="#0052B4"/><path d="M10.435 10.435L16 16v-1.574l-3.991-3.991h-1.574z" fill="#F0F0F0"/><path d="M10.435 10.435L16 16v-1.574l-3.991-3.991h-1.574z" fill="#D80027"/><path d="M2.51 10.435L0 12.945v-2.51h2.51zm3.055.708V16H.708l4.857-4.857z" fill="#0052B4"/><path d="M3.991 10.435L0 14.426V16l5.565-5.565H3.991z" fill="#D80027"/><path d="M3.284 5.565L0 2.281v3.284h3.284zm2.281 0L0 0v1.574l3.991 3.991h1.574zM1.482 0l4.083 4.083V0H1.482z" fill="#0052B4"/><path d="M5.565 5.565L0 0v1.574l3.991 3.991h1.574z" fill="#F0F0F0"/><path d="M5.565 5.565L0 0v1.574l3.991 3.991h1.574z" fill="#D80027"/><path d="M13.49 5.565L16 3.055v2.51h-2.51zm-3.055-.708V0h4.857l-4.857 4.857z" fill="#0052B4"/><path d="M12.009 5.565L16 1.574V0l-5.565 5.565h1.574z" fill="#D80027"/></g><defs><clipPath id="clip0"><path d="M0 0h16v16H0V0z" fill="#fff"/></clipPath></defs></svg>